<mxfile host="app.diagrams.net" agent="Mozilla/5.0 (Windows NT 10.0; Win64; x64) AppleWebKit/537.36 (KHTML, like Gecko) Chrome/133.0.0.0 Safari/537.36" version="26.0.16">
  <diagram name="Page-1" id="4st8sco25FVayMi8mJyV">
    <mxGraphModel dx="1621" dy="446" grid="1" gridSize="10" guides="1" tooltips="1" connect="1" arrows="1" fold="1" page="1" pageScale="1" pageWidth="827" pageHeight="1169" math="0" shadow="0">
      <root>
        <mxCell id="0" />
        <mxCell id="1" parent="0" />
        <mxCell id="gaNpCZlAAqNQLPtJFYt0-14" style="edgeStyle=orthogonalEdgeStyle;rounded=0;orthogonalLoop=1;jettySize=auto;html=1;exitX=0.5;exitY=1;exitDx=0;exitDy=0;entryX=0;entryY=0.5;entryDx=0;entryDy=0;endArrow=none;startFill=0;" edge="1" parent="1" source="gaNpCZlAAqNQLPtJFYt0-1" target="gaNpCZlAAqNQLPtJFYt0-3">
          <mxGeometry relative="1" as="geometry" />
        </mxCell>
        <mxCell id="gaNpCZlAAqNQLPtJFYt0-15" style="edgeStyle=orthogonalEdgeStyle;rounded=0;orthogonalLoop=1;jettySize=auto;html=1;exitX=0.5;exitY=1;exitDx=0;exitDy=0;entryX=0;entryY=0.5;entryDx=0;entryDy=0;endArrow=none;startFill=0;" edge="1" parent="1" source="gaNpCZlAAqNQLPtJFYt0-1" target="gaNpCZlAAqNQLPtJFYt0-9">
          <mxGeometry relative="1" as="geometry" />
        </mxCell>
        <mxCell id="gaNpCZlAAqNQLPtJFYt0-16" style="edgeStyle=orthogonalEdgeStyle;rounded=0;orthogonalLoop=1;jettySize=auto;html=1;exitX=0.5;exitY=1;exitDx=0;exitDy=0;entryX=0;entryY=0.5;entryDx=0;entryDy=0;endArrow=none;startFill=0;" edge="1" parent="1" source="gaNpCZlAAqNQLPtJFYt0-1" target="gaNpCZlAAqNQLPtJFYt0-10">
          <mxGeometry relative="1" as="geometry" />
        </mxCell>
        <mxCell id="gaNpCZlAAqNQLPtJFYt0-1" value="Homepage" style="rounded=0;whiteSpace=wrap;html=1;fillColor=#d80073;strokeColor=#A50040;fontColor=#ffffff;" vertex="1" parent="1">
          <mxGeometry x="200" y="60" width="120" height="60" as="geometry" />
        </mxCell>
        <mxCell id="gaNpCZlAAqNQLPtJFYt0-3" value="Overview of Happiness Index" style="rounded=0;whiteSpace=wrap;html=1;fillColor=#ffcd28;gradientColor=none;strokeColor=#d79b00;" vertex="1" parent="1">
          <mxGeometry x="360" y="210" width="120" height="60" as="geometry" />
        </mxCell>
        <mxCell id="gaNpCZlAAqNQLPtJFYt0-9" value="Introduction to website (explaining the report + dataset)" style="rounded=0;whiteSpace=wrap;html=1;fillColor=#ffcd28;gradientColor=none;strokeColor=#d79b00;" vertex="1" parent="1">
          <mxGeometry x="360" y="120" width="120" height="60" as="geometry" />
        </mxCell>
        <mxCell id="gaNpCZlAAqNQLPtJFYt0-39" style="edgeStyle=orthogonalEdgeStyle;rounded=0;orthogonalLoop=1;jettySize=auto;html=1;exitX=0.5;exitY=1;exitDx=0;exitDy=0;entryX=0.5;entryY=0;entryDx=0;entryDy=0;endArrow=none;startFill=0;" edge="1" parent="1" source="gaNpCZlAAqNQLPtJFYt0-10" target="gaNpCZlAAqNQLPtJFYt0-19">
          <mxGeometry relative="1" as="geometry" />
        </mxCell>
        <mxCell id="gaNpCZlAAqNQLPtJFYt0-40" style="edgeStyle=orthogonalEdgeStyle;rounded=0;orthogonalLoop=1;jettySize=auto;html=1;exitX=0.5;exitY=1;exitDx=0;exitDy=0;endArrow=none;startFill=0;" edge="1" parent="1" source="gaNpCZlAAqNQLPtJFYt0-10" target="gaNpCZlAAqNQLPtJFYt0-20">
          <mxGeometry relative="1" as="geometry" />
        </mxCell>
        <mxCell id="gaNpCZlAAqNQLPtJFYt0-41" style="edgeStyle=orthogonalEdgeStyle;rounded=0;orthogonalLoop=1;jettySize=auto;html=1;exitX=0.5;exitY=1;exitDx=0;exitDy=0;endArrow=none;startFill=0;" edge="1" parent="1" source="gaNpCZlAAqNQLPtJFYt0-10" target="gaNpCZlAAqNQLPtJFYt0-21">
          <mxGeometry relative="1" as="geometry" />
        </mxCell>
        <mxCell id="gaNpCZlAAqNQLPtJFYt0-42" style="edgeStyle=orthogonalEdgeStyle;rounded=0;orthogonalLoop=1;jettySize=auto;html=1;exitX=0.5;exitY=1;exitDx=0;exitDy=0;entryX=0.5;entryY=0;entryDx=0;entryDy=0;endArrow=none;startFill=0;" edge="1" parent="1" source="gaNpCZlAAqNQLPtJFYt0-10" target="gaNpCZlAAqNQLPtJFYt0-34">
          <mxGeometry relative="1" as="geometry" />
        </mxCell>
        <mxCell id="gaNpCZlAAqNQLPtJFYt0-10" value="Navigation Menu" style="rounded=0;whiteSpace=wrap;html=1;fillColor=#ffcd28;gradientColor=none;strokeColor=#d79b00;" vertex="1" parent="1">
          <mxGeometry x="360" y="300" width="120" height="60" as="geometry" />
        </mxCell>
        <mxCell id="gaNpCZlAAqNQLPtJFYt0-17" value="Cleaned Dataset" style="rounded=0;whiteSpace=wrap;html=1;fillColor=#ffcd28;gradientColor=none;strokeColor=#d79b00;" vertex="1" parent="1">
          <mxGeometry x="510" y="210" width="120" height="60" as="geometry" />
        </mxCell>
        <mxCell id="gaNpCZlAAqNQLPtJFYt0-18" value="" style="endArrow=none;html=1;rounded=0;exitX=1;exitY=0.5;exitDx=0;exitDy=0;entryX=0;entryY=0.5;entryDx=0;entryDy=0;" edge="1" parent="1" source="gaNpCZlAAqNQLPtJFYt0-3" target="gaNpCZlAAqNQLPtJFYt0-17">
          <mxGeometry width="50" height="50" relative="1" as="geometry">
            <mxPoint x="540" y="240" as="sourcePoint" />
            <mxPoint x="590" y="190" as="targetPoint" />
          </mxGeometry>
        </mxCell>
        <mxCell id="gaNpCZlAAqNQLPtJFYt0-44" style="edgeStyle=orthogonalEdgeStyle;rounded=0;orthogonalLoop=1;jettySize=auto;html=1;exitX=0.5;exitY=1;exitDx=0;exitDy=0;entryX=0.5;entryY=0;entryDx=0;entryDy=0;endArrow=none;startFill=0;" edge="1" parent="1" source="gaNpCZlAAqNQLPtJFYt0-19" target="gaNpCZlAAqNQLPtJFYt0-22">
          <mxGeometry relative="1" as="geometry" />
        </mxCell>
        <mxCell id="gaNpCZlAAqNQLPtJFYt0-19" value="Statistics Page (including filters)" style="rounded=0;whiteSpace=wrap;html=1;fillColor=#1ba1e2;strokeColor=#006EAF;fontColor=#ffffff;" vertex="1" parent="1">
          <mxGeometry x="120" y="440" width="120" height="60" as="geometry" />
        </mxCell>
        <mxCell id="gaNpCZlAAqNQLPtJFYt0-47" style="edgeStyle=orthogonalEdgeStyle;rounded=0;orthogonalLoop=1;jettySize=auto;html=1;exitX=0.5;exitY=1;exitDx=0;exitDy=0;entryX=0.5;entryY=0;entryDx=0;entryDy=0;endArrow=none;startFill=0;" edge="1" parent="1" source="gaNpCZlAAqNQLPtJFYt0-20" target="gaNpCZlAAqNQLPtJFYt0-32">
          <mxGeometry relative="1" as="geometry" />
        </mxCell>
        <mxCell id="gaNpCZlAAqNQLPtJFYt0-20" value="Statistics Insights" style="rounded=0;whiteSpace=wrap;html=1;fillColor=#1ba1e2;fontColor=#ffffff;strokeColor=#006EAF;" vertex="1" parent="1">
          <mxGeometry x="280" y="440" width="120" height="60" as="geometry" />
        </mxCell>
        <mxCell id="gaNpCZlAAqNQLPtJFYt0-50" style="edgeStyle=orthogonalEdgeStyle;rounded=0;orthogonalLoop=1;jettySize=auto;html=1;exitX=0.5;exitY=1;exitDx=0;exitDy=0;entryX=0.5;entryY=0;entryDx=0;entryDy=0;endArrow=none;startFill=0;" edge="1" parent="1" source="gaNpCZlAAqNQLPtJFYt0-21" target="gaNpCZlAAqNQLPtJFYt0-29">
          <mxGeometry relative="1" as="geometry" />
        </mxCell>
        <mxCell id="gaNpCZlAAqNQLPtJFYt0-21" value="User Poll Page" style="rounded=0;whiteSpace=wrap;html=1;fillColor=#1ba1e2;fontColor=#ffffff;strokeColor=#006EAF;" vertex="1" parent="1">
          <mxGeometry x="443.5" y="440" width="120" height="60" as="geometry" />
        </mxCell>
        <mxCell id="gaNpCZlAAqNQLPtJFYt0-45" style="edgeStyle=orthogonalEdgeStyle;rounded=0;orthogonalLoop=1;jettySize=auto;html=1;exitX=0.5;exitY=1;exitDx=0;exitDy=0;entryX=0.5;entryY=0;entryDx=0;entryDy=0;endArrow=none;startFill=0;" edge="1" parent="1" source="gaNpCZlAAqNQLPtJFYt0-22" target="gaNpCZlAAqNQLPtJFYt0-23">
          <mxGeometry relative="1" as="geometry" />
        </mxCell>
        <mxCell id="gaNpCZlAAqNQLPtJFYt0-22" value="Line graph" style="rounded=0;whiteSpace=wrap;html=1;fillColor=#ffcd28;strokeColor=#d79b00;gradientColor=none;" vertex="1" parent="1">
          <mxGeometry x="120" y="520" width="120" height="60" as="geometry" />
        </mxCell>
        <mxCell id="gaNpCZlAAqNQLPtJFYt0-46" style="edgeStyle=orthogonalEdgeStyle;rounded=0;orthogonalLoop=1;jettySize=auto;html=1;exitX=0.5;exitY=1;exitDx=0;exitDy=0;entryX=0.5;entryY=0;entryDx=0;entryDy=0;endArrow=none;startFill=0;" edge="1" parent="1" source="gaNpCZlAAqNQLPtJFYt0-23" target="gaNpCZlAAqNQLPtJFYt0-24">
          <mxGeometry relative="1" as="geometry" />
        </mxCell>
        <mxCell id="gaNpCZlAAqNQLPtJFYt0-23" value="Pie chart" style="rounded=0;whiteSpace=wrap;html=1;fillColor=#ffcd28;gradientColor=none;strokeColor=#d79b00;" vertex="1" parent="1">
          <mxGeometry x="120" y="600" width="120" height="60" as="geometry" />
        </mxCell>
        <mxCell id="gaNpCZlAAqNQLPtJFYt0-24" value="Bar chart" style="rounded=0;whiteSpace=wrap;html=1;fillColor=#ffcd28;gradientColor=none;strokeColor=#d79b00;" vertex="1" parent="1">
          <mxGeometry x="120" y="680" width="120" height="60" as="geometry" />
        </mxCell>
        <mxCell id="gaNpCZlAAqNQLPtJFYt0-26" value="to include tooltips(?) and hover effects" style="text;strokeColor=none;align=center;fillColor=none;html=1;verticalAlign=middle;whiteSpace=wrap;rounded=0;" vertex="1" parent="1">
          <mxGeometry x="150" y="780" width="60" height="30" as="geometry" />
        </mxCell>
        <mxCell id="gaNpCZlAAqNQLPtJFYt0-28" value="(eg. country selection, year range)" style="text;strokeColor=none;align=center;fillColor=none;html=1;verticalAlign=middle;whiteSpace=wrap;rounded=0;" vertex="1" parent="1">
          <mxGeometry x="-20" y="460" width="120" height="30" as="geometry" />
        </mxCell>
        <mxCell id="gaNpCZlAAqNQLPtJFYt0-51" style="edgeStyle=orthogonalEdgeStyle;rounded=0;orthogonalLoop=1;jettySize=auto;html=1;exitX=0.5;exitY=1;exitDx=0;exitDy=0;entryX=0.5;entryY=0;entryDx=0;entryDy=0;endArrow=none;startFill=0;" edge="1" parent="1" source="gaNpCZlAAqNQLPtJFYt0-29" target="gaNpCZlAAqNQLPtJFYt0-30">
          <mxGeometry relative="1" as="geometry" />
        </mxCell>
        <mxCell id="gaNpCZlAAqNQLPtJFYt0-29" value="Collect user&#39;s age, country, happiness factors" style="rounded=0;whiteSpace=wrap;html=1;fillColor=#ffcd28;gradientColor=none;strokeColor=#d79b00;" vertex="1" parent="1">
          <mxGeometry x="444" y="525" width="120" height="60" as="geometry" />
        </mxCell>
        <mxCell id="gaNpCZlAAqNQLPtJFYt0-52" style="edgeStyle=orthogonalEdgeStyle;rounded=0;orthogonalLoop=1;jettySize=auto;html=1;exitX=0.5;exitY=1;exitDx=0;exitDy=0;entryX=0.5;entryY=0;entryDx=0;entryDy=0;endArrow=none;startFill=0;" edge="1" parent="1" source="gaNpCZlAAqNQLPtJFYt0-30" target="gaNpCZlAAqNQLPtJFYt0-31">
          <mxGeometry relative="1" as="geometry" />
        </mxCell>
        <mxCell id="gaNpCZlAAqNQLPtJFYt0-30" value="Validate and store responses" style="rounded=0;whiteSpace=wrap;html=1;fillColor=#ffcd28;gradientColor=none;strokeColor=#d79b00;" vertex="1" parent="1">
          <mxGeometry x="444" y="600" width="120" height="60" as="geometry" />
        </mxCell>
        <mxCell id="gaNpCZlAAqNQLPtJFYt0-31" value="Display summary of user-submitted data" style="rounded=0;whiteSpace=wrap;html=1;fillColor=#ffcd28;gradientColor=none;strokeColor=#d79b00;" vertex="1" parent="1">
          <mxGeometry x="444" y="680" width="120" height="60" as="geometry" />
        </mxCell>
        <mxCell id="gaNpCZlAAqNQLPtJFYt0-48" style="edgeStyle=orthogonalEdgeStyle;rounded=0;orthogonalLoop=1;jettySize=auto;html=1;exitX=0.5;exitY=1;exitDx=0;exitDy=0;entryX=0.5;entryY=0;entryDx=0;entryDy=0;endArrow=none;startFill=0;" edge="1" parent="1" source="gaNpCZlAAqNQLPtJFYt0-32" target="gaNpCZlAAqNQLPtJFYt0-33">
          <mxGeometry relative="1" as="geometry" />
        </mxCell>
        <mxCell id="gaNpCZlAAqNQLPtJFYt0-32" value="Data-driven insights" style="rounded=0;whiteSpace=wrap;html=1;fillColor=#ffcd28;gradientColor=none;strokeColor=#d79b00;" vertex="1" parent="1">
          <mxGeometry x="280" y="525" width="120" height="60" as="geometry" />
        </mxCell>
        <mxCell id="gaNpCZlAAqNQLPtJFYt0-33" value="Suggestions for improving happiness(???)" style="rounded=0;whiteSpace=wrap;html=1;fillColor=#ffcd28;gradientColor=none;strokeColor=#d79b00;" vertex="1" parent="1">
          <mxGeometry x="280" y="600" width="120" height="60" as="geometry" />
        </mxCell>
        <mxCell id="gaNpCZlAAqNQLPtJFYt0-53" style="edgeStyle=orthogonalEdgeStyle;rounded=0;orthogonalLoop=1;jettySize=auto;html=1;exitX=0.5;exitY=1;exitDx=0;exitDy=0;entryX=0.5;entryY=0;entryDx=0;entryDy=0;endArrow=none;startFill=0;" edge="1" parent="1" source="gaNpCZlAAqNQLPtJFYt0-34" target="gaNpCZlAAqNQLPtJFYt0-35">
          <mxGeometry relative="1" as="geometry" />
        </mxCell>
        <mxCell id="gaNpCZlAAqNQLPtJFYt0-34" value="About Page" style="rounded=0;whiteSpace=wrap;html=1;fillColor=#1ba1e2;fontColor=#ffffff;strokeColor=#006EAF;" vertex="1" parent="1">
          <mxGeometry x="610" y="440" width="120" height="60" as="geometry" />
        </mxCell>
        <mxCell id="gaNpCZlAAqNQLPtJFYt0-54" style="edgeStyle=orthogonalEdgeStyle;rounded=0;orthogonalLoop=1;jettySize=auto;html=1;exitX=0.5;exitY=1;exitDx=0;exitDy=0;entryX=0.5;entryY=0;entryDx=0;entryDy=0;endArrow=none;startFill=0;" edge="1" parent="1" source="gaNpCZlAAqNQLPtJFYt0-35" target="gaNpCZlAAqNQLPtJFYt0-36">
          <mxGeometry relative="1" as="geometry" />
        </mxCell>
        <mxCell id="gaNpCZlAAqNQLPtJFYt0-35" value="Data sources" style="rounded=0;whiteSpace=wrap;html=1;fillColor=#ffcd28;gradientColor=none;strokeColor=#d79b00;" vertex="1" parent="1">
          <mxGeometry x="610" y="525" width="120" height="60" as="geometry" />
        </mxCell>
        <mxCell id="gaNpCZlAAqNQLPtJFYt0-55" style="edgeStyle=orthogonalEdgeStyle;rounded=0;orthogonalLoop=1;jettySize=auto;html=1;exitX=0.5;exitY=1;exitDx=0;exitDy=0;entryX=0.5;entryY=0;entryDx=0;entryDy=0;endArrow=none;startFill=0;" edge="1" parent="1" source="gaNpCZlAAqNQLPtJFYt0-36" target="gaNpCZlAAqNQLPtJFYt0-37">
          <mxGeometry relative="1" as="geometry" />
        </mxCell>
        <mxCell id="gaNpCZlAAqNQLPtJFYt0-36" value="How is the happiness index calculated" style="rounded=0;whiteSpace=wrap;html=1;fillColor=#ffcd28;gradientColor=none;strokeColor=#d79b00;" vertex="1" parent="1">
          <mxGeometry x="610" y="600" width="120" height="60" as="geometry" />
        </mxCell>
        <mxCell id="gaNpCZlAAqNQLPtJFYt0-37" value="Credits and references" style="rounded=0;whiteSpace=wrap;html=1;fillColor=#ffcd28;gradientColor=none;strokeColor=#d79b00;" vertex="1" parent="1">
          <mxGeometry x="610" y="680" width="120" height="60" as="geometry" />
        </mxCell>
      </root>
    </mxGraphModel>
  </diagram>
</mxfile>
